#N canvas 55 74 1280 752 10;
#X obj -421 -1654 tgl 64 0 empty empty ON/OFF 2 30 1 16 -1 -66577 -262144
0 909.091;
#N canvas 582 110 638 717 BPM 0;
#X obj 239 185 /;
#X floatatom 304 226 5 0 0 0 - - -;
#X msg 232 138 60000;
#X obj 185 26 tgl 15 0 empty empty empty 17 7 0 10 -262144 -1 -1 66
66;
#X obj 306 266 outlet;
#X floatatom 142 108 5 1 1000 0 - - -;
#X connect 0 0 1 0;
#X connect 1 0 4 0;
#X connect 2 0 0 0;
#X connect 3 0 2 0;
#X connect 5 0 0 1;
#X connect 5 0 3 0;
#X coords 0 -1 1 1 80 30 1 100 100;
#X restore -273 -1678 pd BPM;
#X obj -426 -1693 pddp/dsp;
#N canvas 0 100 638 717 synth1 0;
#X obj -567 401 mtof;
#X obj -567 350 stripnote;
#X obj -416 406 select;
#X obj -425 300 float;
#X obj -416 268 t b f;
#X obj -416 374 float;
#X text -452 346 off;
#X obj -480 254 unpack;
#X obj -567 160 notein;
#X obj -567 187 pack;
#X obj -486 457 line~;
#X msg -486 431 \$1 100;
#X msg -416 432 0 1000;
#X msg -328 177 55 64;
#X msg -328 203 55 0;
#X msg -385 178 48 64;
#X msg -385 204 48 0;
#X obj -425 329 sel 0;
#X text -403 350 on;
#X obj 11 62 output~;
#X obj -565 575 hip~ 5;
#X obj -566 529 *~;
#X obj -567 428 phasor~;
#X obj -567 452 -~ 0.5;
#X obj -566 480 cos~;
#X obj -478 504 *~;
#X obj -566 504 +~ 1;
#X obj -478 552 cos~;
#X msg -385 155 48 128;
#X text -562 378 pitch;
#X obj -565 551 *~;
#X obj -486 404 / 127;
#X obj -478 528 *~ 2;
#X obj -457 481 +~ 0.5;
#X text -432 458 comment;
#X text -560 123 SYNTH;
#X msg -387 128 48 256;
#X msg -328 152 55 128;
#X msg -328 128 55 256;
#X msg -274 204 62 0;
#X msg -273 177 62 64;
#X msg -266 150 62 128;
#X msg -264 129 62 256;
#X msg -447 128 41 256;
#X msg -445 155 41 128;
#X msg -445 178 41 64;
#X msg -445 204 41 0;
#X msg -507 128 34 256;
#X msg -506 156 34 128;
#X msg -505 178 34 64;
#X msg -505 204 34 0;
#X obj -266 277 bng 15 250 50 0 empty empty empty 17 7 0 10 -262144
-1 -1;
#X msg -507 18 27 256;
#X msg -506 45 27 128;
#X msg -505 68 27 64;
#X msg -505 94 27 0;
#X msg -420 513 0;
#X msg -420 539 2;
#X msg -447 18 20 256;
#X msg -445 45 20 128;
#X msg -445 68 20 64;
#X msg -445 94 20 0;
#X msg -387 18 13 256;
#X msg -385 45 13 128;
#X msg -385 67 13 64;
#X msg -385 94 13 0;
#X msg -328 18 16 256;
#X msg -328 41 16 128;
#X msg -329 67 16 64;
#X msg -328 93 16 0;
#X msg -264 19 9 256;
#X msg -266 40 9 128;
#X msg -273 67 9 64;
#X msg -274 94 9 0;
#X obj -558 -102 f;
#X obj -527 -102 + 1;
#X obj -491 -102 mod 32;
#X obj -552 -63 sel 0 1 2 3 4 5 6 7 8 9 10 11 12 13 14 15 16 17 18
19 20 21 22 23 24 25 26 27 28 29 30 31;
#X obj -559 -126 metro 100;
#X text -395 -114 BEAT 3;
#X obj -197 -119 inlet;
#X obj -134 -36 / 8;
#X obj -329 -114 inlet;
#X connect 0 0 22 0;
#X connect 1 0 2 1;
#X connect 1 0 0 0;
#X connect 2 0 12 0;
#X connect 3 0 17 0;
#X connect 4 0 3 0;
#X connect 4 1 5 1;
#X connect 5 0 2 0;
#X connect 7 0 1 0;
#X connect 7 0 4 0;
#X connect 7 1 1 1;
#X connect 7 1 3 1;
#X connect 8 0 9 0;
#X connect 8 1 9 1;
#X connect 9 0 7 0;
#X connect 10 0 30 1;
#X connect 10 0 33 0;
#X connect 11 0 10 0;
#X connect 12 0 10 0;
#X connect 13 0 7 0;
#X connect 14 0 7 0;
#X connect 15 0 7 0;
#X connect 16 0 7 0;
#X connect 17 0 5 0;
#X connect 17 1 31 0;
#X connect 20 0 19 0;
#X connect 20 0 19 1;
#X connect 21 0 30 0;
#X connect 22 0 23 0;
#X connect 23 0 25 0;
#X connect 23 0 24 0;
#X connect 24 0 26 0;
#X connect 25 0 32 0;
#X connect 26 0 21 0;
#X connect 27 0 21 1;
#X connect 28 0 7 0;
#X connect 30 0 20 0;
#X connect 31 0 11 0;
#X connect 32 0 27 0;
#X connect 33 0 25 1;
#X connect 36 0 7 0;
#X connect 37 0 7 0;
#X connect 38 0 7 0;
#X connect 40 0 7 0;
#X connect 41 0 7 0;
#X connect 42 0 7 0;
#X connect 43 0 7 0;
#X connect 44 0 7 0;
#X connect 45 0 7 0;
#X connect 46 0 7 0;
#X connect 47 0 7 0;
#X connect 48 0 7 0;
#X connect 49 0 7 0;
#X connect 50 0 7 0;
#X connect 51 0 50 0;
#X connect 51 0 46 0;
#X connect 51 0 16 0;
#X connect 51 0 14 0;
#X connect 51 0 39 0;
#X connect 52 0 7 0;
#X connect 56 0 32 1;
#X connect 57 0 32 1;
#X connect 74 0 75 0;
#X connect 74 0 77 0;
#X connect 75 0 76 0;
#X connect 76 0 74 1;
#X connect 77 12 36 0;
#X connect 77 20 42 0;
#X connect 77 23 36 0;
#X connect 77 28 44 0;
#X connect 77 32 47 0;
#X connect 78 0 74 0;
#X connect 80 0 81 0;
#X connect 81 0 78 1;
#X connect 82 0 78 0;
#X coords 0 -1 1 1 100 200 1 0 0;
#X restore -65 -1428 pd synth1;
#N canvas 289 33 638 717 COSMIC 0;
#X obj 112 482 efficient-kick;
#X msg 112 452 1;
#X obj 229 481 efficient-snare;
#X obj 97 113 f;
#X obj 128 113 + 1;
#X msg 229 451 1;
#X obj 350 481 efficient-fmhh;
#X msg 327 453 1;
#X msg 369 450 2;
#X obj 164 113 mod 32;
#X obj 101 146 sel 0 1 2 3 4 5 6 7 8 9 10 11 12 13 14 15 16 17 18 19
20 21 22 23 24 25 26 27 28 29 30 31;
#X obj 230 532 *~ 2;
#X text 253 108 BEAT PRINCIPAL;
#X obj 82 34 inlet;
#X obj 227 584 dac~;
#X obj 175 36 inlet;
#X text 176 12 BPM;
#X text 79 10 allumage;
#X obj 83 77 metro 800;
#X obj 220 79 / 8;
#X obj 6 22 vsl 15 128 0 3 0 0 empty empty empty 0 -9 0 10 -262144
-1 -1 0 1;
#X text 251 79 Division du BPM en fonction du sequencage;
#X obj 38 145 bng 15 250 50 0 empty empty empty 17 7 0 10 -262144 -1
-1;
#X obj 38 111 bng 15 250 50 0 empty empty empty 17 7 0 10 -262144 -1
-1;
#X msg 76 547 2;
#X msg 66 576 0;
#X connect 0 0 11 0;
#X connect 1 0 0 0;
#X connect 2 0 11 0;
#X connect 3 0 4 0;
#X connect 3 0 10 0;
#X connect 4 0 9 0;
#X connect 5 0 2 0;
#X connect 6 0 11 0;
#X connect 7 0 6 0;
#X connect 8 0 6 0;
#X connect 9 0 3 1;
#X connect 10 0 1 0;
#X connect 10 4 1 0;
#X connect 10 8 1 0;
#X connect 10 12 1 0;
#X connect 10 12 8 0;
#X connect 10 16 1 0;
#X connect 10 20 1 0;
#X connect 10 24 1 0;
#X connect 10 28 1 0;
#X connect 10 28 8 0;
#X connect 11 0 14 0;
#X connect 11 0 14 1;
#X connect 13 0 18 0;
#X connect 15 0 19 0;
#X connect 18 0 3 0;
#X connect 19 0 18 1;
#X connect 20 0 11 1;
#X connect 22 0 25 0;
#X connect 23 0 24 0;
#X connect 24 0 11 1;
#X connect 25 0 11 1;
#X coords 0 -1 1 1 60 200 1 0 0;
#X restore 456 -1565 pd COSMIC;
#N canvas 686 22 638 717 COSMIC2 0;
#X obj 112 482 efficient-kick;
#X msg 112 452 1;
#X obj 229 481 efficient-snare;
#X obj 97 113 f;
#X obj 128 113 + 1;
#X msg 229 451 1;
#X obj 350 481 efficient-fmhh;
#X msg 327 453 1;
#X msg 369 450 2;
#X obj 164 113 mod 32;
#X obj 101 142 sel 0 1 2 3 4 5 6 7 8 9 10 11 12 13 14 15 16 17 18 19
20 21 22 23 24 25 26 27 28 29 30 31;
#X obj 230 532 *~ 2;
#X text 253 108 BEAT PRINCIPAL;
#X obj 82 34 inlet;
#X obj 227 584 dac~;
#X obj 175 36 inlet;
#X text 176 12 BPM;
#X text 79 10 allumage;
#X obj 83 77 metro 800;
#X obj 220 79 / 8;
#X obj 6 22 vsl 15 128 0 3 0 0 empty empty empty 0 -9 0 10 -262144
-1 -1 0 1;
#X text 251 79 Division du BPM en fonction du sequencage;
#X obj 38 145 bng 15 250 50 0 empty empty empty 17 7 0 10 -262144 -1
-1;
#X obj 38 111 bng 15 250 50 0 empty empty empty 17 7 0 10 -262144 -1
-1;
#X msg 76 547 2;
#X msg 66 576 0;
#X connect 0 0 11 0;
#X connect 1 0 0 0;
#X connect 2 0 11 0;
#X connect 3 0 4 0;
#X connect 3 0 10 0;
#X connect 4 0 9 0;
#X connect 5 0 2 0;
#X connect 6 0 11 0;
#X connect 7 0 6 0;
#X connect 8 0 6 0;
#X connect 9 0 3 1;
#X connect 10 4 7 0;
#X connect 10 10 5 0;
#X connect 10 12 7 0;
#X connect 10 20 7 0;
#X connect 10 28 7 0;
#X connect 11 0 14 0;
#X connect 11 0 14 1;
#X connect 13 0 18 0;
#X connect 15 0 19 0;
#X connect 18 0 3 0;
#X connect 19 0 18 1;
#X connect 20 0 11 1;
#X connect 22 0 25 0;
#X connect 23 0 24 0;
#X connect 24 0 11 1;
#X connect 25 0 11 1;
#X coords 0 -1 1 1 60 200 1 0 0;
#X restore 218 -1464 pd COSMIC2;
#N canvas 54 22 1280 752 COSMIC 0;
#X obj 134 492 efficient-kick;
#X msg 134 462 1;
#X obj 251 491 efficient-snare;
#X obj 119 123 f;
#X obj 150 123 + 1;
#X msg 251 461 1;
#X obj 372 491 efficient-fmhh;
#X msg 349 463 1;
#X msg 391 460 2;
#X obj 186 123 mod 32;
#X obj 125 160 sel 0 1 2 3 4 5 6 7 8 9 10 11 12 13 14 15 16 17 18 19
20 21 22 23 24 25 26 27 28 29 30 31;
#X obj 252 542 *~ 2;
#X text 275 118 BEAT PRINCIPAL;
#X obj 104 44 inlet;
#X obj 249 594 dac~;
#X obj 197 46 inlet;
#X text 198 22 BPM;
#X text 101 20 allumage;
#X obj 105 87 metro 800;
#X obj 242 89 / 8;
#X obj 16 32 vsl 15 128 0 3 0 0 empty empty empty 0 -9 0 10 -262144
-1 -1 0 1;
#X text 273 89 Division du BPM en fonction du sequencage;
#X obj 48 155 bng 15 250 50 0 empty empty empty 17 7 0 10 -262144 -1
-1;
#X obj 48 121 bng 15 250 50 0 empty empty empty 17 7 0 10 -262144 -1
-1;
#X msg 98 557 2;
#X msg 76 586 0;
#X obj 574 53 bng 15 250 50 0 empty empty empty 17 7 0 10 -4034 -1
-1;
#X obj 574 75 openpanel;
#X obj 574 132 soundfiler;
#X obj 574 176 bng 15 250 50 0 empty empty empty 17 7 0 10 -4034 -1
-1;
#X obj 574 198 openpanel;
#X obj 574 255 soundfiler;
#X obj 624 405 bng 15 250 50 0 empty empty empty 17 7 0 10 -4034 -1
-1;
#X obj 624 427 openpanel;
#X obj 624 484 soundfiler;
#X text 583 28 chargement des samples wav ou aiff dans les tables;
#X text 890 216 conteneur des samples;
#X obj 684 635 dac~;
#X msg 574 103 read -resize \$1 kick;
#X obj 916 256 table kick;
#X obj 213 356 tabplay~ kick;
#X obj 844 413 bng 15 250 50 0 empty empty empty 17 7 0 10 -4034 -1
-1;
#X obj 844 435 openpanel;
#X obj 844 492 soundfiler;
#X obj 915 344 table kickfat;
#X obj 686 254 tabplay~ kickfat;
#X msg 574 226 read -resize \$1 kickfat;
#X text 652 194 ne marche pas pour l'instant (trop gros);
#X msg 624 455 read -resize \$1 tambourin;
#X obj 904 282 table tambourin;
#X obj 691 587 tabplay~ tambourin;
#X obj 917 316 table charley;
#X obj 398 370 tabplay~ charley;
#X msg 844 463 read -resize \$1 charley;
#X connect 0 0 11 0;
#X connect 1 0 0 0;
#X connect 2 0 11 0;
#X connect 3 0 4 0;
#X connect 3 0 10 0;
#X connect 4 0 9 0;
#X connect 5 0 2 0;
#X connect 6 0 11 0;
#X connect 7 0 6 0;
#X connect 8 0 6 0;
#X connect 9 0 3 1;
#X connect 10 0 52 0;
#X connect 10 0 40 0;
#X connect 10 8 52 0;
#X connect 10 16 52 0;
#X connect 10 24 52 0;
#X connect 10 28 5 0;
#X connect 10 32 52 0;
#X connect 11 0 14 0;
#X connect 11 0 14 1;
#X connect 13 0 18 0;
#X connect 15 0 19 0;
#X connect 18 0 3 0;
#X connect 19 0 18 1;
#X connect 20 0 11 1;
#X connect 22 0 25 0;
#X connect 23 0 24 0;
#X connect 24 0 11 1;
#X connect 25 0 11 1;
#X connect 26 0 27 0;
#X connect 27 0 38 0;
#X connect 29 0 30 0;
#X connect 30 0 46 0;
#X connect 32 0 33 0;
#X connect 33 0 48 0;
#X connect 38 0 28 0;
#X connect 40 0 14 0;
#X connect 40 0 14 1;
#X connect 41 0 42 0;
#X connect 42 0 53 0;
#X connect 46 0 31 0;
#X connect 48 0 34 0;
#X connect 52 0 14 0;
#X connect 52 0 14 1;
#X connect 53 0 43 0;
#X coords 0 -1 1 1 100 200 1 0 0;
#X restore -368 -1465 pd COSMIC SAMPLES;
#X connect 0 0 3 0;
#X connect 0 0 4 0;
#X connect 0 0 5 0;
#X connect 0 0 6 0;
#X connect 1 0 0 0;
#X connect 1 0 3 1;
#X connect 1 0 4 1;
#X connect 1 0 5 1;
#X connect 1 0 6 1;
#X coords 0 752 1 751 85 60 0;
