#N canvas 423 175 854 640 12;
#X obj 9 31 table sample1;
#X obj 9 58 table sample2;
#X obj 8 86 table sample3;
#X obj 223 40 bng 15 250 50 0 empty empty empty 17 7 0 10 -4034 -1
-1;
#X obj 223 62 openpanel;
#X obj 223 119 soundfiler;
#X msg 223 90 read -resize \$1 sample1;
#X obj 423 39 bng 15 250 50 0 empty empty empty 17 7 0 10 -4034 -1
-1;
#X obj 423 61 openpanel;
#X obj 423 118 soundfiler;
#X obj 623 38 bng 15 250 50 0 empty empty empty 17 7 0 10 -4034 -1
-1;
#X obj 623 60 openpanel;
#X obj 623 117 soundfiler;
#X msg 423 89 read -resize \$1 sample2;
#X msg 623 88 read -resize \$1 sample3;
#X obj 21 491 tabplay~ sample1;
#X obj 171 491 tabplay~ sample2;
#X obj 321 491 tabplay~ sample3;
#X obj 140 442 select 0 1 2;
#X obj 140 384 metro 125;
#X obj 140 414 random 3;
#X obj 21 571 dac~;
#X obj 140 357 tgl 15 0 empty empty empty 17 7 0 10 -262144 -1 -1 0
1;
#X text 217 6 chargement des samples wav ou aiff dans les tables;
#X text 6 3 conteneur des samples;
#X obj 140 312 bng 30 250 50 0 empty empty empty 17 7 0 10 -258113
-1 -1;
#X text 14 275 lecture aleatoire toutes les 125ms des 3 samples;
#X connect 3 0 4 0;
#X connect 4 0 6 0;
#X connect 6 0 5 0;
#X connect 7 0 8 0;
#X connect 8 0 13 0;
#X connect 10 0 11 0;
#X connect 11 0 14 0;
#X connect 13 0 9 0;
#X connect 14 0 12 0;
#X connect 15 0 21 1;
#X connect 15 0 21 0;
#X connect 16 0 21 1;
#X connect 16 0 21 0;
#X connect 17 0 21 1;
#X connect 17 0 21 0;
#X connect 18 0 15 0;
#X connect 18 1 16 0;
#X connect 18 2 17 0;
#X connect 19 0 20 0;
#X connect 20 0 18 0;
#X connect 22 0 19 0;
#X connect 25 0 22 0;